<svg xmlns="http://www.w3.org/2000/svg" pointer-events="none" class="leaflet-zoom-animated" width="1454" height="847" viewBox="-121 -71 1454 847" style="transform: translate3d(-121px, -71px, 0px) scale(1);"><g><path class="leaflet-interactive" stroke="#201920" stroke-opacity="1" stroke-width="2" stroke-linecap="round" stroke-linejoin="round" fill="none" d="M363 310L363 306L362 307L360 303L364 301L363 298L366 295L367 296L370 293L372 293L372 291L375 292L377 290L378 293L384 293L389 285L394 286L397 283L398 284L398 282L404 280L407 277L414 275L414 268L417 265L416 264L419 263L419 259L416 252L416 246L412 244L412 242L425 238L433 240L434 239L431 236L431 234L437 216L444 219L453 220L457 218L459 216L457 205L461 201L463 202L466 200L468 196L467 195L469 193L475 193L477 200L482 202L484 206L490 206L491 209L494 208L494 210L497 212L499 219L501 219L502 222L502 225L500 227L501 230L499 233L500 240L501 239L504 241L505 240L511 242L521 242L532 250L537 250L536 253L538 253L539 258L545 267L551 266L570 269L586 269L593 274L594 273L599 276L609 277L610 279L614 280L617 277L634 270L644 271L655 268L663 260L667 259L670 256L666 250L667 245L670 241L683 245L687 243L692 237L699 237L705 232L704 231L709 226L713 226L714 223L718 224L720 222L725 221L727 223L734 222L733 217L723 207L718 206L714 210L705 208L702 211L699 208L699 206L701 204L708 184L716 188L723 183L729 181L730 178L728 178L728 176L733 169L735 161L738 158L740 158L741 155L740 150L738 148L735 149L735 147L743 139L744 140L760 136L764 136L768 139L769 138L771 141L774 142L780 142L780 145L782 145L783 149L786 151L785 154L787 155L786 156L789 161L788 162L790 163L790 169L793 172L794 179L796 179L795 184L798 188L805 187L805 189L811 189L811 191L813 191L817 196L821 196L819 199L822 203L820 205L824 211L835 210L840 205L842 206L849 202L856 202L853 203L852 208L854 210L848 216L849 217L846 224L847 227L840 240L837 241L830 238L828 240L829 241L823 243L826 253L826 259L824 265L819 267L820 270L817 267L817 265L814 264L813 269L811 271L810 270L807 275L799 275L802 280L800 282L793 281L791 279L792 278L790 278L791 277L788 278L783 287L776 290L770 295M403 377L400 374L400 372L403 369L405 373L407 371L407 367L402 361L402 357L405 354L399 350L397 342L392 343L385 340L385 338L382 339L380 336L381 333L378 330L376 330L376 328L368 326L370 324L372 325M629 467L627 467L628 464L626 464L628 460L626 458L621 459L617 455L615 455L613 459L608 459L605 462L603 460L601 460L598 463L595 460L593 460L592 463L587 462L587 474L583 473L583 469L575 471L575 469L573 469L572 466L568 466L568 460L570 458L565 456L565 452L563 450L565 448L559 448L555 450L554 449L556 447L554 445L556 441L555 440L563 432L562 431L564 427L564 419L561 416L561 418L559 416L559 412L555 410L555 408L553 410L554 411L552 411L553 414L550 416L543 411L539 411L536 412L536 414L533 416L528 417L522 423L518 424L510 424L510 418L506 418L505 413L500 414L491 411L487 415L485 420L483 418L484 413L482 412L480 414L475 415L471 415L466 412L464 414L462 412L462 414L458 410L455 411L454 407L451 408L446 403L446 401L442 403L437 398L435 398L435 396L434 397L433 395L431 395L430 392L425 391L423 395L409 385L406 386L403 383L403 377M638 471L633 470L629 467M641 600L640 591M649 516L652 520L653 525M657 549L655 557M669 621L677 618M699 590L704 584M723 560L726 551M727 518L727 527M735 493L730 501M750 469L744 477M755 454L757 444"/><path class="leaflet-interactive" stroke="#201920" stroke-opacity="1" stroke-width="2" stroke-linecap="butt" stroke-linejoin="round" stroke-dasharray="4,4" stroke-dashoffset="4" fill="none" d="M372 325L374 323L372 321L372 313L370 311L367 310L365 312L363 310"/><path class="leaflet-interactive" stroke="gray" stroke-opacity="1" stroke-width="1" stroke-linecap="round" stroke-linejoin="round" stroke-dasharray="8,4,4,4" fill="none" d="M683 465L683 465M688 462L686 462L685 465L690 465L690 463L688 462"/><path class="leaflet-interactive" stroke="#4190da" stroke-opacity="1" stroke-width="1" stroke-linecap="round" stroke-linejoin="round" fill="none" d="M687 464L687 462L685 463L684 460L683 465L681 467L680 466L680 468L677 467L675 469L672 468L670 470L660 472L656 475L656 477L659 480L657 482L653 482L651 476L653 472L651 470L649 472L647 472L647 470L638 471M657 474L657 474M657 474L657 476L657 474M683 465L683 465M687 464L687 464M687 464L687 464M687 464L687 464M734 425L731 426L733 426L734 429L731 430L732 433L730 435L734 435L732 437L729 436L729 438L727 438L728 439L727 440L727 438L725 442L724 441L725 442L723 445L720 444L720 446L714 453L710 453L706 459L700 459L698 461L696 459L693 462L691 460L691 462L690 463L690 461L688 463L690 463L687 464M734 425L734 425M749 403L747 407L748 410L745 413L744 412L743 415L742 414L734 427L733 426L735 424L734 425M747 329L745 331L741 331L742 334L741 333L740 336L737 337L737 335L737 337L728 348L738 356L742 366L742 370L747 374L746 375L750 377L750 379L745 377L743 379L745 381M745 381L751 386L750 387L752 389L748 387L743 390L746 391L750 396L752 396L749 398L751 399L750 403M747 329L747 329M747 329L747 329M753 303L750 307L746 309L743 308L748 305L748 303L747 304L744 301L746 301L746 299L753 292L752 289L751 290L749 288L744 287L739 292L739 294L732 297L729 300L729 302L723 306L723 308L720 307L720 305L718 305L716 309L716 313L718 313L718 315L725 316L728 319L729 318L729 320L726 321L726 323L729 326L733 326L733 324L737 321L736 320L740 319L746 321L746 323L752 322L756 324L753 329L747 329M747 329L747 329M749 403L749 403M749 403L749 403M749 403L749 403M750 403L749 403M750 403L750 403M752 395L752 395M752 395L752 395M752 395L752 395M753 395L752 395M752 395L750 393L752 393L753 395M753 395L753 395M753 393L754 392L753 393M753 393L753 393M753 303L753 303M770 295L768 299L762 299L753 303M754 388L754 388M754 388L754 388M756 387L756 387M645 470L645 470M647 475L647 475M650 485L650 485M650 589L651 587L654 588L653 587L650 589M651 500L643 496L643 490L648 485L660 482L663 486L660 489L658 495L652 498L651 500M654 585L655 584L654 585M657 478L657 478M658 474L658 474M658 585L658 585M658 583L659 582L658 583M659 475L659 473L659 475M659 481L659 481M659 583L659 583M659 476L659 476M664 519L664 519M666 509L667 508L666 509M666 579L666 579M666 514L666 514M666 573L666 573M667 587L667 587M667 585L667 585M667 514L667 514M667 513L667 513M667 584L668 585L667 584M667 516L667 516M667 578L668 579L667 578M667 513L667 513M668 586L668 586M668 513L668 513M668 516L669 515L668 516M668 514L669 513L668 514M668 517L668 517M670 583L670 583M670 515L670 515M670 617L670 617M672 577L672 577M672 577L672 577M672 617L672 617M672 511L672 511M672 520L672 520M672 509L673 510L672 509M672 576L673 577L672 576M672 616L672 616M673 576L673 576M673 603L673 603M673 510L673 510M673 511L673 511M674 515L673 516L674 515M674 470L674 470M674 602L674 602M674 518L675 517L674 518M674 514L675 513L674 514M674 571L674 571M674 603L675 602L674 603M674 601L675 602L674 601M675 577L675 577M675 600L675 600M675 607L675 607M675 470L675 470M675 603L675 603M675 605L675 605M675 514L676 515L675 514M675 607L675 607M676 469L675 470L676 469M676 515L676 515M676 512L676 512M677 470L676 469L677 470M677 576L677 576M677 470L677 470M677 511L677 511M677 585L677 585M677 571L677 571M677 571L677 571M678 608L678 608M678 580L678 580M678 488L678 488M678 570L678 570M678 468L678 468M679 467L679 467M679 468L679 468M680 467L680 467M680 597L680 597M680 583L680 583M680 583L681 582L680 583M683 465L683 465M683 565L683 565M683 592L683 592M683 576L684 575L683 576M684 574L684 574M684 467L684 467M684 521L684 521M684 467L684 467M684 467L684 467M684 467L684 467M684 587L685 586L684 587M685 589L685 589M685 463L685 463M685 466L685 466M685 491L685 491M685 465L687 465L685 465M685 567L685 567M685 522L685 522M685 520L686 521L685 520M685 584L686 583L685 584M685 587L690 584L691 585L689 587L685 587M686 576L685 577L686 576M686 519L686 519M686 577L686 577M686 576L687 577L686 576M686 523L686 523M687 567L687 567M687 560L687 560M687 583L687 583M687 518L687 518M687 465L687 465M688 467L688 467M688 572L688 572M688 464L688 464M688 467L688 467M688 577L688 577M688 517L688 517M688 466L688 466M688 522L688 522M688 565L688 565M688 569L688 569M688 465L688 465M688 521L689 522L688 521M689 570L689 570M689 556L689 556M689 462L689 462M689 559L689 559M689 464L689 464M689 566L689 566M689 561L689 561M689 555L689 555M690 517L690 517M690 568L690 568M690 521L690 521M690 569L690 569M690 560L690 560M690 561L690 561M690 568L690 568M690 583L691 582L690 583M691 568L691 568M691 568L691 568M691 556L691 556M691 568L691 568M691 577L692 576L691 577M691 521L691 521M691 568L692 567L691 568M691 556L692 555L691 556M691 463L691 463M692 587L692 587M692 582L692 582M692 564L692 564M692 555L692 555M692 559L693 558L692 559M692 516L692 516M692 569L692 569M693 582L693 582M693 558L693 558M693 519L693 519M693 561L693 561M693 590L693 590M693 584L693 584M694 560L694 560M694 517L694 517M694 588L694 588M694 558L694 558M696 580L697 581L696 580M696 579L697 580L696 579M697 566L697 566M697 535L697 535M698 572L698 572M698 568L698 568M698 580L699 579L698 580M700 563L700 563M700 563L700 563M700 563L700 563M700 564L701 563L700 564M701 563L701 563M701 570L702 569L701 570M701 560L701 560M702 475L702 475M702 474L703 475L702 474M702 573L702 573M703 567L703 567M704 571L704 571M705 576L705 576M706 569L706 569M706 574L706 574M706 569L706 569M706 564L708 564L706 564M707 569L707 569M708 563L708 563M708 515L708 515M708 555L709 556L708 555M708 478L708 478M708 575L708 575M709 477L709 479L709 477M709 563L709 563M712 454L710 454L712 454M712 562L712 562M712 561L712 561M713 565L713 565M713 562L714 561L713 562M713 558L713 558M713 567L713 567M714 559L714 559M716 562L716 562M716 559L716 559M716 525L717 524L716 525M717 561L717 561M719 445L719 445M720 445L719 444L720 445M720 446L721 445L720 446M722 445L721 446L722 445M724 306L724 306M725 305L725 305M725 305L726 306L725 305M730 456L730 456M730 439L731 438L730 439M731 455L731 455M731 452L731 452M731 452L731 452M731 435L731 435M732 430L732 430M732 453L731 454L732 453M732 434L732 434M732 435L732 435M732 426L733 425L732 426M732 437L732 437M732 437L732 437M733 426L733 426M734 435L734 435M734 430L734 430M734 432L734 432M735 454L735 454M735 429L734 430L735 429M735 427L735 427M736 427L736 427M736 426L736 426M736 424L736 424M736 340L736 340M737 423L737 423M737 464L737 464M737 423L737 423M738 320L738 320M739 428L739 428M740 318L739 317L740 318M740 467L736 460L735 453L741 443L746 438L748 438L750 440L750 445L746 457L742 462L742 468L740 467M740 317L740 317M740 318L740 318M741 316L741 316M741 291L741 291M741 314L741 314M742 313L742 313M742 314L742 314M743 333L743 333M743 414L743 414M743 418L743 418M743 414L744 413L743 414M744 414L745 413L744 414M746 378L751 381L750 382L744 378L746 378M746 371L746 371M746 461L746 461M747 466L747 466M748 467L748 467M748 381L748 381M748 403L748 403M749 407L749 407M749 383L747 382L749 383M749 382L751 383L749 382M749 394L749 394M749 406L749 406M749 407L750 406L749 407M750 409L750 409M750 394L749 395L750 394M750 383L750 383M750 409L750 409M750 436L750 436M750 442L750 442M750 394L750 394M750 384L751 383L750 384M750 392L750 392M751 403L751 403M751 397L751 397M751 395L751 395M751 393L751 393M751 389L751 389M751 395L751 395M751 395L751 395M752 395L752 395M752 395L752 395M752 393L752 393M752 392L753 393L752 392M752 393L752 393M752 400L752 400M752 398L751 397L752 398M752 398L752 398M752 395L753 396L752 395M753 396L753 396M753 396L753 396M753 398L752 397L753 398M753 396L754 395L754 397L753 396M754 305L754 305M754 395L754 395M754 391L754 391M755 391L755 391M755 305L755 305M755 304L755 304M755 389L755 389M756 305L757 304L756 305M757 394L757 394M757 307L756 306L757 307M757 388L757 388M757 388L757 388M759 301L758 302L759 301M759 302L759 302M760 307L760 307M761 434L763 434L761 434M763 433L763 433M764 432L765 433L764 432M764 435L764 435M764 434L764 434M764 435L764 435M764 299L764 299M771 432L770 433L771 432"/><path class="leaflet-interactive" stroke="#747569" stroke-opacity="0.6" stroke-width="1" stroke-linecap="round" stroke-linejoin="round" fill="none" d="M491 336L482 333L472 333L464 335L461 340L453 340L446 344L437 343L436 340L432 340L432 342L430 342L428 345L416 343L416 345L414 347L413 346L412 351L410 353L409 352L405 354M555 371L553 371L553 373L550 376L548 376L547 379L544 377L543 380L541 378L538 379L536 377L537 374L536 375L534 373L536 373L534 373L531 370L525 372L520 371L518 369L511 369L506 366L500 366L496 364L490 356L492 356L492 348L490 348L489 345L492 339L488 337L491 336M513 307L506 308L504 310L498 310L497 312L494 313L495 315L497 315L497 320L499 320L504 327L502 327L499 330L499 332L502 333L500 337L494 335L492 337L491 336M588 361L587 362L586 360L584 360L580 356L580 354L581 353L590 356L590 354L592 354L589 351L589 349L593 345L592 344L596 342L595 339L597 339L598 337L596 331L593 328L595 326L589 320L588 321L584 319L575 312L575 314L573 314L565 306L560 307L558 309L553 305L549 305L550 310L547 313L547 315L545 314L543 316L539 313L530 314L528 309L524 310L524 308L519 308L518 305L513 307M545 267L541 270L543 273L541 277L536 279L533 278L525 285L523 289L517 290L515 300L512 304L513 307M608 323L601 319L601 313L605 311L608 306L606 304L607 303L604 302L598 306L594 304L588 306L590 308L588 310L581 307L580 303L570 298L576 290L575 287L567 287L567 289L566 288L563 290L563 288L560 290L560 287L557 285L555 281L556 279L551 266M567 402L565 388L562 383L565 382L561 378L559 372L555 371M588 361L587 366L583 364L584 369L578 371L576 369L575 370L573 366L572 369L565 366L561 356L557 355L555 356L555 358L553 358L553 360L556 363L553 366L554 367L552 367L555 371M559 412L559 410L563 412L563 404L565 406L565 402L567 402M616 416L615 413L611 415L609 413L609 407L605 407L605 410L601 412L602 415L597 420L598 427L595 430L595 428L588 431L588 429L586 429L586 425L580 417L581 416L579 414L577 416L574 413L574 408L571 406L569 408L569 412L567 410L567 402M618 367L617 370L611 370L608 367L609 364L607 360L600 359L597 354L591 358L594 361L589 366L588 361M635 319L632 316L626 314L630 307L628 303L624 304L624 306L623 305L621 309L621 317L619 320L608 323M608 323L610 323L617 330L616 331L618 335L618 340L620 340L620 342L622 342L625 345L625 341L630 338L630 336L626 334L626 328L628 326L632 326M616 416L616 418L612 420L608 420L605 418L603 422L604 427L610 425L611 426L608 435L611 438L613 438L610 443M610 443L610 445L614 445L616 449L621 448L623 450L622 454L621 453L618 456M650 431L649 434L646 433L645 434L647 434L647 436L644 435L643 438L639 436L640 437L636 439L633 438L632 435L622 443L615 440L611 444L610 443M625 409L623 407L619 409L619 411L620 410L624 412L625 414L623 416L616 416M632 326L632 328L639 332L640 331L643 334L643 343L641 345L636 344L636 348L626 346L627 349L625 351L628 354L626 354L627 361L621 361L620 364L622 365L619 368L618 367M642 374L636 374L635 372L633 372L634 371L632 372L630 370L631 369L624 370L622 368L619 369L618 367M648 409L647 412L645 412L641 404L637 404L635 402L633 402L633 406L630 405L628 409L626 409L626 407L625 409M625 409L624 405L620 405L620 403L616 399L620 395L618 393L622 391L624 393L627 392L627 394L630 395L633 392L633 388L638 387L638 383L642 380L640 376L642 374M632 326L632 322L635 319M663 303L663 301L660 304L657 304L655 302L656 303L654 305L653 304L654 305L647 312L647 317L645 317L643 321L635 319M642 374L651 379M651 379L656 384L656 386L650 390L641 390L641 392L643 393L641 397L643 397L646 400L645 401L647 400L648 403M648 403L648 409M686 404L684 404L683 397L679 400L678 397L673 400L669 396L665 396L663 394L659 394L659 398L652 397L652 399L651 398L648 403M650 431L650 429L648 429L650 421L645 422L645 420L647 420L646 419L650 417L648 409M670 443L669 442L666 444L666 440L662 440L666 433L664 433L663 428L659 428L656 432L654 430L652 432L650 431M662 364L660 366L658 364L650 364L652 368L653 367L656 370L652 370L650 372L651 379M652 471L652 472M652 471L656 467L657 468L657 466L660 465L660 463L663 460L665 460L665 454L671 446L670 443M653 483L654 483M655 483L657 482M657 351L656 348L659 341L657 327L661 321L658 318L658 316L661 313L662 308L664 306L663 303M657 351L662 364M657 351L667 349L670 346L671 347L671 345L677 345L683 341L684 334M658 482L659 481M697 382L695 380L692 381L691 378L686 379L684 375L685 374L683 372L681 374L679 372L672 373L668 371L662 364M662 365L662 365M687 289L687 291L677 293L677 295L674 293L669 301L666 300L666 302L663 303M670 443L672 439L676 439L676 441L678 441L679 438L677 438L679 436L683 438L686 436M698 336L695 335L694 337L684 334M684 334L682 330L684 330L684 328L685 329L684 326L687 323L687 319L685 315L683 315L683 311L685 309L684 307L689 306L691 302L690 299L686 297L686 295L687 296L687 294L690 293L687 289M704 397L702 398L698 396L698 398L696 398L693 401L689 401L686 404M686 436L686 432L688 430L686 430L687 427L685 425L685 420L683 418L683 416L688 411L688 407L686 404M686 436L686 438L692 438L692 440L690 440L688 444L690 445L697 442L701 444L700 443L702 441M728 283L721 282L721 274L720 275L718 273L719 272L717 268L711 270L707 276L706 275L703 278L701 276L697 278L697 280L693 280L694 276L690 274L688 280L685 281L687 289M704 351L704 353L707 354L708 357L705 360L701 356L699 358L700 361L698 361L697 364L693 366L696 369L696 371L702 371L702 377L699 378L697 382M704 397L701 391L701 387L703 385L697 382M718 314L713 319L709 319L706 322L705 321L704 324L702 324L702 326L697 331L698 336M704 351L698 351L698 349L696 349L696 347L695 348L693 346L701 338L703 338L703 336L697 340L698 336M702 441L701 438L708 427L707 424L711 422L712 419L710 417L713 416L713 414L716 415L722 411M712 453L709 444L707 444L705 442L706 441L702 441M720 401L720 399L716 399L713 396L711 396L712 397L709 399L708 398L710 396L708 394L704 397M705 351L704 351M729 347L725 347L725 349L722 350L721 353L718 350L716 352L713 351L713 353L709 347L706 348L705 351M732 384L731 385L729 383L725 383L724 382L726 380L724 380L724 378L723 379L721 377L723 375L722 374L724 374L723 371L727 371L728 368L725 367L725 369L721 369L721 367L718 364L720 360L716 360L717 359L714 356L705 351M714 294L712 292L715 289L711 289L707 285L705 287L706 288L700 291L702 293L698 297L698 299L701 302L705 302L707 300L709 301M716 311L713 312L708 309L710 305L709 301M710 300L709 301M710 300L712 300L712 296M712 296L709 297L710 300M712 453L713 454M714 294L712 296M713 455L714 455M714 294L717 297L715 297L715 299L719 305M720 401L726 395L725 394L730 391L728 389L731 388L732 384M720 401L719 404L722 407L722 411M738 421L737 418L733 420L731 416L728 419L725 418L725 411L722 411M728 283L730 281L730 271L735 276L735 278L741 272L742 273L745 270L749 270L751 267L759 267L762 264L764 264L764 260M733 297L733 294L730 291L728 291L728 289L725 288L728 283M742 385L739 388L732 384M740 422L741 422M741 313L743 313M750 380L745 377L744 383L742 385M745 389L742 385M746 389L747 389M762 219L762 221L761 220L759 222L754 215L755 212L769 200L771 206L773 194L777 192L776 184L783 169L777 161L774 163L774 165L759 166L756 157L757 154L753 150L750 153L748 153L748 151L745 149L749 143L747 139M747 389L748 388M749 388L750 388M751 387L752 387M754 387L755 387M756 386L757 386M826 259L821 259L817 253L815 255L815 253L812 255L811 254L809 258L807 258L803 252L802 247L799 250L800 251L797 252L794 246L791 247L792 242L790 240L782 240L780 236L771 237L767 233L767 227L760 228M760 228L759 224L764 222L764 220L763 221L762 219M760 228L757 230L757 234L754 231L751 232L749 230L748 233L751 235L753 239L751 242L753 250L758 249L760 247L763 256L763 258L761 258L764 260M762 219L762 219M762 219L762 219M762 219L762 219M764 260L765 259L770 264L770 266L773 263L774 264L776 272L778 274L779 273L777 275L777 279L779 279L778 280L781 283L779 287L781 287M621 343L622 342L621 343M650 425L651 424L650 425M678 397L678 397"/><path class="leaflet-interactive" stroke="#3388ff" stroke-opacity="0" stroke-width="3" stroke-linecap="round" stroke-linejoin="round" fill="#3388ff" fill-opacity="0" fill-rule="evenodd" d="M713 290L715 290L710 289L708 285L703 290L700 291L702 293L701 295L698 296L698 299L701 302L705 302L707 300L708 301L710 299L709 296L714 295L712 293L713 290z"/><path class="leaflet-interactive" stroke="#3388ff" stroke-opacity="0" stroke-width="3" stroke-linecap="round" stroke-linejoin="round" fill="#3388ff" fill-opacity="0" fill-rule="evenodd" d="M717 303L718 302L715 299L715 297L717 297L714 294L712 296L712 300L709 301L710 305L708 309L716 311L718 307L717 306L719 304L716 303zM717 303L717 303z"/><path class="leaflet-interactive" stroke="#3388ff" stroke-opacity="0" stroke-width="3" stroke-linecap="round" stroke-linejoin="round" fill="#3388ff" fill-opacity="0" fill-rule="evenodd" d="M714 290L712 292L717 297L715 297L715 299L722 308L729 302L729 299L733 297L731 291L729 291L726 288L726 286L729 283L721 282L721 274L720 275L718 273L719 272L717 268L711 270L708 276L702 276L697 278L697 280L694 279L694 276L692 274L690 274L688 280L685 281L685 285L689 293L691 293L686 296L690 298L690 304L686 306L683 311L683 315L686 317L687 320L684 326L685 327L682 331L685 334L694 337L696 335L697 336L697 332L701 328L702 324L705 322L706 323L709 319L713 319L718 314L715 311L711 311L708 309L710 305L708 300L706 302L700 302L698 300L698 297L702 293L700 291L703 290L708 285L710 289L714 290zM712 296L709 297L710 300L712 300L712 296zM717 303L716 303zM725 305L725 306z"/><path class="leaflet-interactive" stroke="#3388ff" stroke-opacity="0" stroke-width="3" stroke-linecap="round" stroke-linejoin="round" fill="#3388ff" fill-opacity="0" fill-rule="evenodd" d="M657 351L667 349L670 346L671 347L671 345L677 345L683 341L684 334L682 330L685 328L684 327L687 322L686 317L683 314L685 310L684 307L689 306L691 302L690 299L686 296L691 293L689 293L688 289L683 293L680 292L677 293L676 295L674 293L669 301L667 300L664 303L661 313L658 316L658 318L661 321L657 327L659 339L656 348L657 351z"/><path class="leaflet-interactive" stroke="#3388ff" stroke-opacity="0" stroke-width="3" stroke-linecap="round" stroke-linejoin="round" fill="#3388ff" fill-opacity="0" fill-rule="evenodd" d="M551 266L556 279L554 281L560 287L560 290L564 290L566 288L567 289L567 287L574 287L576 290L575 294L570 298L580 303L580 307L583 307L586 310L588 310L590 308L588 306L593 304L597 306L601 303L606 302L608 306L605 311L601 313L601 319L609 323L618 320L621 317L621 309L623 305L624 306L624 304L627 303L630 306L630 308L626 314L629 316L633 316L633 318L638 319L638 321L643 321L644 318L647 317L646 314L654 305L653 304L654 305L656 303L655 302L657 304L659 304L662 301L664 303L667 300L668 301L674 293L676 295L680 292L683 293L687 291L685 281L688 280L690 274L692 274L694 276L693 279L696 280L701 276L703 278L706 275L707 276L710 274L710 270L714 270L717 268L719 272L718 273L720 275L721 274L721 282L728 283L730 281L730 275L728 273L730 271L735 276L735 278L741 272L742 273L745 270L749 270L755 266L758 267L764 263L764 261L761 258L763 258L763 256L760 247L753 251L751 244L753 240L748 233L749 230L751 232L754 231L757 234L757 230L760 228L759 224L764 222L763 219L761 219L762 220L760 222L758 221L758 219L754 215L755 212L763 207L769 200L771 206L773 194L777 192L776 184L783 169L777 161L774 163L774 165L759 165L756 158L757 153L755 153L752 150L749 153L745 149L749 143L748 140L743 139L735 147L735 149L740 149L741 156L734 163L735 164L730 171L731 172L728 178L730 178L729 181L716 188L708 184L701 200L701 204L699 205L699 208L702 211L705 208L714 211L718 206L723 207L733 217L734 222L732 224L727 223L725 221L717 224L715 223L713 226L709 226L704 232L705 233L700 237L692 237L687 243L683 245L677 244L674 241L669 241L666 249L670 257L662 261L657 267L645 271L634 270L625 273L614 280L611 279L610 277L599 276L595 273L593 274L586 269L565 269L552 267z"/><path class="leaflet-interactive" stroke="#3388ff" stroke-opacity="0" stroke-width="3" stroke-linecap="round" stroke-linejoin="round" fill="#3388ff" fill-opacity="0" fill-rule="evenodd" d="M763 299L767 299L774 291L775 292L781 287L781 283L778 280L779 279L777 279L777 275L779 273L778 274L776 272L776 268L773 263L770 266L770 263L765 259L763 264L760 265L761 266L754 266L754 268L752 267L749 270L745 270L735 278L735 276L730 271L728 273L730 275L730 280L726 285L726 288L729 291L731 291L733 297L739 294L739 292L744 287L749 287L753 291L750 294L751 295L746 299L747 300L744 302L748 304L748 306L747 305L747 307L746 306L744 310L749 307L750 308L749 307L755 302L763 299zM756 304L756 304zM753 305L753 305zM756 304L757 305L756 304zM757 307L756 306L757 307zM759 301L758 302L759 301zM755 304L755 305zM741 291L741 291zM759 302L759 302zM760 307L760 307zM764 299L765 299z"/><path class="leaflet-interactive" stroke="#3388ff" stroke-opacity="0" stroke-width="3" stroke-linecap="round" stroke-linejoin="round" fill="#3388ff" fill-opacity="0" fill-rule="evenodd" d="M812 271L814 264L816 264L820 270L820 268L818 267L822 266L825 263L826 260L818 257L818 253L816 255L814 253L810 255L809 258L807 258L803 252L802 247L799 250L800 251L797 252L794 246L791 247L792 242L790 240L782 240L780 236L776 238L774 236L771 237L767 233L767 229L765 227L761 227L757 230L757 234L754 231L751 232L749 230L748 233L751 235L753 240L751 242L753 250L755 251L760 247L763 256L763 258L761 258L763 260L765 259L768 262L769 261L769 264L771 266L773 263L774 264L776 272L778 274L779 273L777 275L777 279L779 279L778 280L781 283L781 287L784 286L790 277L794 281L801 282L799 275L807 275L810 270L812 271z"/><path class="leaflet-interactive" stroke="#3388ff" stroke-opacity="0" stroke-width="3" stroke-linecap="round" stroke-linejoin="round" fill="#3388ff" fill-opacity="0" fill-rule="evenodd" d="M763 228L767 228L767 232L771 237L774 236L776 238L780 236L782 240L790 240L792 242L791 247L794 246L798 252L800 252L799 249L802 247L803 252L807 258L809 258L809 256L814 253L816 255L818 253L818 257L824 260L825 253L823 244L830 239L839 242L840 241L840 237L847 226L846 225L849 217L848 216L853 211L853 203L856 201L840 205L837 208L836 207L837 208L835 210L824 211L820 206L822 204L819 199L821 196L817 196L810 189L807 190L804 187L798 188L796 186L796 179L794 179L793 172L790 169L791 166L789 166L790 163L788 162L789 161L786 157L787 156L783 148L784 147L780 145L781 144L779 142L773 142L763 136L748 138L747 139L749 143L744 149L747 150L748 153L750 153L753 150L757 154L756 157L759 166L774 165L776 161L783 168L781 176L776 183L777 191L773 193L771 206L769 200L758 211L755 212L754 215L759 222L761 220L762 221L762 219L763 221L764 220L764 222L759 223L760 227L763 228z"/><path class="leaflet-interactive" stroke="#3388ff" stroke-opacity="0" stroke-width="3" stroke-linecap="round" stroke-linejoin="round" fill="#3388ff" fill-opacity="0" fill-rule="evenodd" d="M742 385L746 389L751 386L746 381L744 381L742 385zM750 380L745 377L744 378L747 381L751 381zM749 383L747 381L749 383zM749 382L752 383L749 382zM748 381L747 381zM750 384L750 383zM750 383L750 383z"/><path class="leaflet-interactive" stroke="#3388ff" stroke-opacity="0" stroke-width="3" stroke-linecap="round" stroke-linejoin="round" fill="#3388ff" fill-opacity="0" fill-rule="evenodd" d="M713 352L712 353L709 348L705 350L712 356L715 356L717 360L719 360L718 365L720 365L722 369L726 367L728 369L727 372L723 370L724 373L721 377L723 379L724 378L724 380L726 380L724 383L730 383L729 384L733 384L739 388L746 380L744 379L745 377L750 380L750 377L742 369L738 356L730 350L728 346L725 347L722 353L720 353L718 350L716 352L713 352z"/><path class="leaflet-interactive" stroke="#3388ff" stroke-opacity="0" stroke-width="3" stroke-linecap="round" stroke-linejoin="round" fill="#3388ff" fill-opacity="0" fill-rule="evenodd" d="M722 411L725 412L725 418L728 419L732 416L733 419L737 418L739 421L740 417L744 415L743 412L744 413L748 411L748 403L751 402L749 398L752 396L748 395L743 390L745 388L742 385L739 388L733 384L731 388L728 389L730 391L727 392L725 394L726 395L719 402L719 404L722 407L722 410zM752 395L753 396L753 394L751 393L752 395zM752 393L752 394zM753 398L753 398zM754 388L754 388zM752 392L753 393L752 392zM753 393L753 392zM751 403L751 402zM754 396L754 396zM754 391L754 391zM749 406L750 406zM753 396L753 397zM749 403L749 403zM744 417L744 417zM750 388L751 389L750 388zM750 409L750 409zM752 398L751 397L752 398zM754 395L754 396zM755 389L755 389zM750 409L750 409zM751 393L751 393zM754 395L754 395zM749 395L750 394L749 395zM743 418L743 418zM750 402L751 403L750 402zM751 397L751 398zM750 394L750 394zM750 392L750 392zM752 395L752 395zM753 398L753 397zM744 415L744 415zM757 394L757 394zM753 392L753 392zM753 396L753 396zM757 388L757 388zM743 414L744 413L743 414zM744 414L745 413L744 414zM754 395L754 395zM757 388L757 388zM752 395L753 395zM751 395L751 395zM743 414L743 413zM754 396L754 396zM752 395L752 395z"/><path class="leaflet-interactive" stroke="#3388ff" stroke-opacity="0" stroke-width="3" stroke-linecap="round" stroke-linejoin="round" fill="#3388ff" fill-opacity="0" fill-rule="evenodd" d="M707 357L708 358L704 360L700 356L700 361L698 361L697 364L693 366L696 369L696 371L702 371L702 378L700 378L697 381L701 385L703 385L700 389L704 397L707 396L707 394L710 396L708 398L709 399L712 396L714 396L715 399L722 400L726 395L725 394L730 391L728 389L730 389L732 385L729 384L730 383L724 383L726 381L722 377L724 373L723 370L727 372L728 369L726 367L722 369L720 365L718 365L720 360L716 360L717 358L715 356L711 356L706 351L704 352L705 354L707 354L707 357zM725 381L726 381zM708 398L708 398zM698 372L698 372z"/><path class="leaflet-interactive" stroke="#3388ff" stroke-opacity="0" stroke-width="3" stroke-linecap="round" stroke-linejoin="round" fill="#3388ff" fill-opacity="0" fill-rule="evenodd" d="M727 441L726 438L728 440L727 439L730 438L728 438L728 436L734 436L730 434L732 434L732 430L734 428L732 426L734 426L734 424L735 425L733 427L736 426L735 425L738 422L738 420L733 420L731 416L729 419L726 418L724 410L721 411L721 413L717 415L714 414L711 417L712 419L707 424L708 427L706 431L703 433L701 441L705 441L707 443L706 444L709 443L710 450L713 453L720 447L719 444L723 445L725 443L724 442L727 441zM722 445L721 446L722 445zM730 439L731 438L730 439zM731 435L731 435zM734 430L734 429zM720 446L720 445zM734 425L734 425zM720 445L719 444L720 445zM734 430L734 430zM732 430L731 430zM735 427L735 427zM732 435L732 434zM733 426L733 426zM736 426L736 426zM737 423L737 423zM736 424L736 424zM732 426L733 425L732 426z"/><path class="leaflet-interactive" stroke="#3388ff" stroke-opacity="0" stroke-width="3" stroke-linecap="round" stroke-linejoin="round" fill="#3388ff" fill-opacity="0" fill-rule="evenodd" d="M720 401L719 399L715 399L714 396L712 396L709 399L708 398L710 396L708 394L702 398L698 396L698 398L696 398L693 401L689 401L686 404L688 406L688 411L684 415L683 419L685 419L684 422L687 427L686 429L688 429L686 437L692 438L688 443L690 445L697 442L700 444L701 443L703 434L708 427L707 424L712 420L711 417L714 414L717 415L722 412L722 408L719 404L720 401z"/><path class="leaflet-interactive" stroke="#3388ff" stroke-opacity="0" stroke-width="3" stroke-linecap="round" stroke-linejoin="round" fill="#3388ff" fill-opacity="0" fill-rule="evenodd" d="M705 351L706 348L709 347L712 352L716 352L718 350L721 353L723 350L725 350L724 349L726 347L730 346L730 344L737 337L737 335L737 337L740 336L741 333L742 334L741 331L742 332L750 328L753 329L756 323L746 323L746 321L740 319L736 320L737 321L733 324L733 326L729 326L726 322L729 321L729 319L726 316L723 317L718 314L713 319L709 319L706 322L705 321L705 323L704 322L705 323L702 324L702 326L697 331L697 340L703 336L703 338L701 338L693 346L700 352L705 351zM740 318L741 318zM740 317L740 317zM743 333L742 333zM741 316L741 315zM742 314L742 313zM736 340L736 339zM740 318L739 317zM741 314L741 314zM747 321L747 321zM747 321L747 321zM747 321L747 321zM698 338L698 338z"/><path class="leaflet-interactive" stroke="#3388ff" stroke-opacity="0" stroke-width="3" stroke-linecap="round" stroke-linejoin="round" fill="#3388ff" fill-opacity="0" fill-rule="evenodd" d="M676 373L679 372L682 374L684 372L686 379L691 379L692 381L695 380L697 382L698 379L702 378L702 372L698 372L696 368L693 367L697 365L700 356L704 360L708 358L704 351L698 351L698 349L696 349L695 347L694 348L693 345L703 337L698 338L697 340L698 337L696 335L694 337L685 334L683 341L678 345L671 344L670 347L657 352L664 368L671 373L675 373zM684 373L684 374z"/><path class="leaflet-interactive" stroke="#3388ff" stroke-opacity="0" stroke-width="3" stroke-linecap="round" stroke-linejoin="round" fill="#3388ff" fill-opacity="0" fill-rule="evenodd" d="M663 365L650 365L653 368L655 368L654 371L651 370L650 374L651 379L655 382L656 386L649 390L641 390L643 393L641 397L643 397L646 400L645 401L647 400L648 403L649 400L651 398L652 399L652 397L659 398L659 394L669 396L672 399L676 399L678 397L679 400L683 396L683 402L685 404L688 401L694 401L693 400L699 396L702 398L703 397L703 393L701 391L701 387L703 385L699 384L695 380L692 381L691 378L686 379L684 373L671 373L668 370L667 371L663 365zM647 390L647 390zM663 365L663 365zM676 373L676 373zM677 397L678 397z"/><path class="leaflet-interactive" stroke="#3388ff" stroke-opacity="0" stroke-width="3" stroke-linecap="round" stroke-linejoin="round" fill="#3388ff" fill-opacity="0" fill-rule="evenodd" d="M670 443L672 439L676 439L676 441L678 441L677 438L679 436L683 438L686 435L686 431L688 430L686 430L687 427L685 425L685 419L683 419L683 417L684 414L687 413L686 412L688 410L688 406L685 403L684 404L683 397L679 400L678 397L676 399L672 399L669 396L658 394L658 398L650 398L648 402L648 413L650 417L648 419L647 418L647 420L644 422L649 421L651 423L651 425L649 425L648 428L653 433L653 430L657 432L659 429L665 429L664 432L666 432L662 441L666 439L666 443L670 442zM650 425L650 425z"/><path class="leaflet-interactive" stroke="#3388ff" stroke-opacity="0" stroke-width="3" stroke-linecap="round" stroke-linejoin="round" fill="#3388ff" fill-opacity="0" fill-rule="evenodd" d="M683 465L684 461L690 463L691 460L693 462L696 459L698 461L700 459L706 459L709 456L709 454L712 453L709 443L706 444L707 443L705 441L701 441L701 444L699 444L698 442L690 445L688 443L692 439L691 437L686 438L686 436L680 436L678 438L677 437L679 439L677 441L675 439L671 440L672 441L670 443L670 449L665 454L666 457L663 461L660 462L659 465L657 465L656 468L655 467L653 470L652 469L653 472L651 476L653 482L657 482L659 480L656 477L658 473L670 470L672 468L680 468L683 465zM711 454L711 454zM677 469L676 470L677 469zM674 470L675 470zM688 466L688 466zM658 474L659 475L659 473L658 474zM674 470L674 469zM658 475L656 475L659 475zM684 467L684 467zM684 467L684 467zM679 468L679 468zM685 463L685 463zM688 467L688 467zM688 467L687 467zM709 477L710 478L708 479L710 479L709 477zM678 468L678 468zM657 478L657 478zM659 476L659 476zM659 481L659 481zM702 474L703 475L702 474zM702 475L702 475zM701 460L701 460zM701 460L701 460z"/><path class="leaflet-interactive" stroke="#3388ff" stroke-opacity="0" stroke-width="3" stroke-linecap="round" stroke-linejoin="round" fill="#3388ff" fill-opacity="0" fill-rule="evenodd" d="M650 431L649 434L646 433L645 434L647 434L645 436L644 435L643 438L642 436L640 436L639 439L637 439L631 435L629 439L622 443L615 440L612 444L610 444L617 449L622 448L624 450L623 453L621 453L618 456L621 459L626 458L628 460L626 464L628 465L627 467L638 471L643 469L646 470L646 472L648 472L651 470L652 471L652 469L653 470L656 467L657 468L657 466L660 465L660 463L666 458L666 452L670 450L669 448L671 446L669 442L666 444L665 439L663 441L662 440L666 433L664 433L664 429L659 429L656 432L654 430L653 433L650 431zM615 441L615 441zM647 475L647 475z"/><path class="leaflet-interactive" stroke="#3388ff" stroke-opacity="0" stroke-width="3" stroke-linecap="round" stroke-linejoin="round" fill="#3388ff" fill-opacity="0" fill-rule="evenodd" d="M655 484L648 485L643 490L643 496L645 498L651 500L659 494L659 491L663 487L660 483L655 483zM672 617L672 617zM680 583L681 582zM670 617L670 617zM666 509L667 508L666 509zM716 525L716 524zM672 616L672 616zM668 516L669 516zM667 516L668 516zM685 587L689 587L691 585L690 584L686 587zM686 576L687 577L686 576zM686 577L686 577zM670 515L670 515zM668 514L669 513L668 514zM672 577L672 577zM685 589L685 589zM688 577L688 577zM672 509L673 510L672 509zM692 564L692 564zM701 570L701 569zM691 568L692 567zM684 587L685 586zM650 589L652 587L654 588L650 588zM705 576L705 576zM674 518L675 517L674 518zM675 577L675 577zM690 560L691 560zM674 515L674 515zM706 564L707 564zM673 510L673 510zM666 514L667 514zM698 568L699 568zM692 582L692 582zM690 583L691 582zM696 580L697 581L696 580zM685 584L686 583zM698 572L698 572zM706 574L706 574zM683 576L684 575L683 576zM692 559L693 558L692 559zM691 556L691 555zM694 560L694 560zM667 514L667 514zM686 576L686 577zM654 585L654 584zM708 555L709 556L708 555zM668 513L668 513zM674 514L675 513L674 514zM668 517L669 517zM685 567L685 566zM693 582L693 582zM707 569L707 570zM697 566L697 566zM709 563L709 563zM692 516L692 516zM702 573L702 573zM684 574L684 574zM692 587L692 587zM690 561L691 561zM717 561L717 561zM688 565L688 565zM692 555L692 555zM708 563L708 563zM658 583L659 582L658 583zM666 579L666 579zM696 579L697 579zM680 583L680 583zM687 560L687 560zM713 565L713 564zM688 517L688 517zM659 583L659 583zM698 580L699 579zM667 587L667 587zM667 578L668 578zM658 585L658 585zM673 576L673 576zM706 569L706 569zM670 583L670 583zM690 521L690 521zM694 558L695 558zM687 518L687 518zM703 567L703 566zM713 562L713 561zM693 590L693 590zM677 576L677 576zM668 586L668 586zM672 577L672 577zM674 601L675 601zM691 577L691 576zM693 584L693 583zM678 580L678 580zM683 592L683 592zM708 515L708 515zM713 567L713 566zM678 488L678 488zM690 517L690 517zM685 491L685 491zM675 607L676 607zM667 584L667 584zM672 576L673 576zM677 585L678 585zM675 603L675 603zM674 603L674 602zM697 535L697 535zM683 565L683 565zM685 522L685 522zM678 608L678 608zM675 607L675 607zM673 603L673 603zM672 511L672 511zM672 520L672 520zM675 605L675 605zM674 602L674 602zM680 597L680 597zM704 571L704 571zM694 588L694 587zM667 585L667 585zM686 519L686 519zM694 517L694 518zM708 575L708 575zM675 514L676 514zM664 485L664 485zM700 564L701 564zM712 561L712 562zM676 515L676 515zM701 563L701 563zM674 571L675 571zM691 521L691 521zM713 558L713 559zM716 559L716 559zM688 572L688 572zM692 569L692 570zM675 600L675 600z"/><path class="leaflet-interactive" stroke="#3388ff" stroke-opacity="0" stroke-width="3" stroke-linecap="round" stroke-linejoin="round" fill="#3388ff" fill-opacity="0" fill-rule="evenodd" d="M625 409L626 406L627 409L631 405L632 406L634 402L636 402L637 405L641 403L641 407L643 407L643 409L646 412L649 408L649 404L647 400L645 400L645 398L641 397L643 393L641 391L643 391L644 389L647 390L655 387L656 384L654 381L652 379L648 379L646 376L642 374L642 376L640 376L642 380L638 384L639 383L637 388L633 388L634 389L630 395L628 395L627 392L624 393L620 391L620 393L618 393L620 395L617 401L620 402L620 404L622 404L625 408zM647 389L647 390zM619 394L619 394zM647 390L647 390zM630 395L630 395z"/><path class="leaflet-interactive" stroke="#3388ff" stroke-opacity="0" stroke-width="3" stroke-linecap="round" stroke-linejoin="round" fill="#3388ff" fill-opacity="0" fill-rule="evenodd" d="M583 421L588 431L597 428L597 420L602 415L602 411L603 412L605 410L604 409L608 407L608 411L610 411L608 413L610 415L616 413L617 416L624 416L624 412L620 410L619 411L619 409L622 406L625 409L624 405L620 405L620 403L616 399L620 396L619 393L618 394L621 391L624 393L627 392L627 394L630 395L634 388L638 387L638 383L642 380L640 376L642 376L642 374L638 374L635 372L634 373L634 371L631 372L630 369L623 370L623 368L621 368L619 370L618 367L617 370L611 370L608 367L609 364L607 360L600 359L597 354L592 357L594 361L589 366L588 361L587 366L583 364L584 369L578 371L576 369L575 370L573 366L572 369L565 366L561 356L555 356L553 360L556 363L553 365L554 366L552 368L560 374L564 382L562 384L565 388L567 409L569 412L569 408L571 406L575 410L574 413L577 416L579 414L583 421zM624 393L624 393zM630 394L630 394zM618 393L618 393z"/><path class="leaflet-interactive" stroke="#3388ff" stroke-opacity="0" stroke-width="3" stroke-linecap="round" stroke-linejoin="round" fill="#3388ff" fill-opacity="0" fill-rule="evenodd" d="M648 409L647 412L645 412L644 409L643 410L643 408L641 407L641 403L637 405L637 403L634 402L633 405L631 405L627 409L626 406L625 409L622 406L619 409L619 411L620 410L624 412L624 415L618 415L615 419L612 420L609 418L607 420L605 418L603 422L604 427L611 426L608 435L611 438L613 438L610 442L612 444L616 440L622 444L624 442L623 441L629 439L631 435L633 436L633 438L638 439L640 437L639 436L643 437L643 435L645 436L647 434L645 434L646 433L649 434L650 429L648 429L648 425L650 425L650 421L645 422L647 420L646 419L650 417L648 409zM650 424L650 424zM650 425L651 425z"/><path class="leaflet-interactive" stroke="#3388ff" stroke-opacity="0" stroke-width="3" stroke-linecap="round" stroke-linejoin="round" fill="#3388ff" fill-opacity="0" fill-rule="evenodd" d="M616 416L614 412L613 414L610 415L608 413L610 411L608 411L609 408L605 408L605 410L603 412L602 411L601 416L597 420L598 427L595 430L595 428L589 431L582 421L580 417L581 416L579 414L577 416L574 413L575 410L571 406L569 408L569 412L567 410L567 402L565 402L565 406L563 404L562 407L564 410L562 412L560 410L559 411L560 418L563 417L564 420L564 430L562 430L563 432L555 440L556 441L554 445L556 447L554 449L555 450L559 448L565 448L563 450L565 453L564 454L566 457L570 457L567 465L572 466L576 471L580 471L582 469L584 471L583 472L587 474L588 469L586 464L588 462L591 463L594 460L598 463L601 460L605 462L608 459L609 461L613 459L612 458L615 455L618 456L621 453L623 453L624 450L622 448L617 449L614 445L610 445L612 440L612 438L609 435L611 426L609 425L605 427L603 424L605 418L607 420L609 418L613 420L616 417z"/><path class="leaflet-interactive" stroke="#3388ff" stroke-opacity="0" stroke-width="3" stroke-linecap="round" stroke-linejoin="round" fill="#3388ff" fill-opacity="0" fill-rule="evenodd" d="M491 336L482 333L472 333L464 335L461 340L460 339L458 341L455 339L446 344L437 343L436 340L432 340L432 342L430 342L428 345L416 343L416 345L414 347L413 346L412 351L410 353L406 353L402 357L402 361L407 368L406 373L404 373L403 370L400 371L400 375L403 377L403 383L406 386L409 385L414 390L415 389L419 391L423 395L425 391L430 392L442 403L444 401L447 402L446 403L451 408L454 407L456 411L459 410L461 414L463 412L463 414L467 412L470 415L478 415L480 413L484 413L483 418L485 420L492 411L500 413L502 415L504 413L506 417L510 419L511 424L522 423L528 417L533 416L536 414L536 412L539 411L543 411L550 415L553 413L552 412L554 408L559 412L559 410L563 412L563 404L565 406L565 402L567 402L565 393L566 392L564 385L562 383L565 382L561 378L559 372L552 371L553 374L552 373L551 376L547 376L548 379L544 377L543 380L541 378L538 379L536 377L537 374L534 374L535 373L530 370L522 372L517 369L511 369L506 366L500 366L496 364L490 357L492 355L492 348L490 348L489 345L492 339L488 337L491 336z"/><path class="leaflet-interactive" stroke="#3388ff" stroke-opacity="0" stroke-width="3" stroke-linecap="round" stroke-linejoin="round" fill="#3388ff" fill-opacity="0" fill-rule="evenodd" d="M657 351L656 348L659 341L657 327L661 321L658 315L662 311L662 307L664 304L663 301L659 304L655 302L656 303L654 305L653 304L654 305L647 312L647 317L645 317L643 321L639 321L636 318L632 322L632 328L639 332L640 331L643 334L643 344L636 344L636 348L626 346L627 349L625 351L628 354L626 354L627 356L625 358L627 361L621 361L620 364L622 365L620 368L618 368L622 368L624 370L630 369L631 372L634 371L634 373L635 372L638 375L641 374L651 379L650 372L652 370L656 370L653 367L652 368L652 366L650 365L659 364L660 366L662 364L657 351zM662 362L662 362zM623 369L623 369z"/><path class="leaflet-interactive" stroke="#3388ff" stroke-opacity="0" stroke-width="3" stroke-linecap="round" stroke-linejoin="round" fill="#3388ff" fill-opacity="0" fill-rule="evenodd" d="M626 340L625 345L621 343L622 342L620 342L617 339L617 329L610 323L605 322L603 319L601 319L601 313L605 311L608 306L606 302L601 303L598 306L593 304L590 305L590 308L588 310L581 307L580 303L578 303L572 298L569 298L574 294L576 290L575 287L567 287L567 289L566 288L563 290L563 288L560 290L560 287L557 285L555 281L555 275L551 266L543 268L541 270L543 273L542 276L536 279L533 278L525 285L523 289L517 290L515 300L512 304L513 307L515 305L519 305L519 308L523 308L525 310L528 309L530 313L539 313L543 316L545 314L547 315L547 313L550 310L550 305L559 309L560 306L562 308L564 306L567 307L566 308L573 314L575 315L575 312L578 315L579 314L583 319L591 321L598 337L589 349L589 351L592 354L588 356L581 353L580 354L583 360L588 362L589 361L589 365L592 364L591 363L593 363L594 361L591 357L593 357L596 354L599 356L600 359L607 360L609 364L608 367L611 370L617 370L618 367L621 367L621 361L627 361L626 354L628 354L625 351L627 349L626 346L635 348L637 347L635 345L636 344L642 345L642 339L644 337L643 333L634 329L631 326L627 326L627 330L625 332L626 335L630 337L629 340L627 340zM622 342L623 342zM596 334L597 334zM623 343L623 343zM626 340L626 340z"/><path class="leaflet-interactive" stroke="#3388ff" stroke-opacity="0" stroke-width="3" stroke-linecap="round" stroke-linejoin="round" fill="#3388ff" fill-opacity="0" fill-rule="evenodd" d="M596 334L596 330L590 320L589 321L587 319L583 319L581 315L580 316L575 312L575 314L573 314L565 306L563 306L562 308L560 306L558 309L553 305L549 305L550 310L547 313L547 315L545 314L543 316L539 313L530 314L528 309L525 310L523 308L519 308L519 306L516 305L504 310L499 310L494 313L495 315L498 314L497 320L504 326L499 329L499 331L502 332L502 335L500 337L494 335L492 337L488 337L492 339L489 344L489 346L492 349L492 355L490 357L496 364L500 366L503 365L511 369L520 370L522 372L530 370L537 375L536 377L538 379L541 378L543 380L544 377L548 379L547 376L548 377L551 376L552 373L553 374L552 371L554 371L553 366L555 363L553 359L556 355L561 357L564 364L568 368L571 369L573 367L575 369L574 370L577 369L579 371L584 369L583 364L586 364L587 366L588 362L584 360L580 355L582 353L587 356L592 354L589 351L589 349L593 345L592 344L596 342L595 340L598 337L597 334z"/><path class="leaflet-interactive" stroke="#3388ff" stroke-opacity="0" stroke-width="3" stroke-linecap="round" stroke-linejoin="round" fill="#3388ff" fill-opacity="0" fill-rule="evenodd" d="M632 326L632 322L635 319L632 316L626 314L630 307L628 303L624 304L624 306L623 305L621 309L621 317L619 320L608 323L610 323L617 330L616 331L618 335L618 340L620 340L620 342L622 342L625 345L625 340L629 340L630 337L626 334L626 328L628 326L632 326zM622 342L622 343zM623 343L623 343z"/><path class="leaflet-interactive" stroke="#3388ff" stroke-opacity="0" stroke-width="3" stroke-linecap="round" stroke-linejoin="round" fill="#3388ff" fill-opacity="0" fill-rule="evenodd" d="M545 267L541 262L538 253L536 253L537 250L533 250L521 242L511 242L505 240L504 241L502 239L501 240L499 235L502 230L500 227L502 223L501 219L499 219L495 210L489 206L486 207L482 205L482 203L477 199L478 198L475 197L475 192L473 194L468 193L468 197L463 202L461 201L457 205L459 214L457 218L453 220L444 219L437 216L431 234L431 236L434 238L433 240L428 239L427 237L425 239L418 241L417 240L412 243L416 246L416 252L419 259L419 262L416 264L417 265L414 268L415 273L410 277L398 282L397 284L395 284L395 286L388 286L383 293L380 292L378 294L378 290L374 292L371 291L372 293L370 293L367 296L366 295L363 298L364 301L361 302L362 307L363 306L362 309L365 312L366 310L371 312L373 320L372 321L374 323L372 325L368 325L379 330L381 332L380 337L383 339L384 338L392 343L397 342L397 346L399 348L398 350L404 354L412 352L413 347L416 345L416 343L428 345L433 340L435 340L438 343L443 344L455 339L457 341L460 340L465 335L469 335L472 333L482 333L492 337L494 335L500 337L502 333L499 330L504 326L498 320L498 314L495 315L494 312L512 307L517 290L523 289L527 283L533 278L535 278L536 280L538 277L540 277L543 273L541 270L543 268z"/><path class="leaflet-interactive" stroke="#3388ff" stroke-opacity="0" stroke-width="3" stroke-linecap="round" stroke-linejoin="round" fill="#3388ff" fill-opacity="0" fill-rule="evenodd" d="M738 463L741 468L742 462L746 457L750 445L750 439L744 439L739 445L737 451L735 452L737 462zM771 432L771 432zM762 434L763 433L762 434zM732 453L731 454zM764 432L764 432zM731 452L730 453L731 452zM731 455L731 455zM731 452L731 452zM751 435L751 435zM746 461L747 461zM747 466L747 466zM751 436L752 436zM730 456L730 456zM737 464L738 464z"/><path class="leaflet-interactive" stroke="#3388ff" stroke-opacity="0" stroke-width="3" stroke-linecap="round" stroke-linejoin="round" fill="#3388ff" fill-opacity="0" fill-rule="evenodd" d="M687 462L687 464L685 464L686 465L690 463L687 462zM687 465L688 465zM689 463L689 463zM689 463L689 463zM689 463L689 463zM689 464L689 464zM689 463L689 463zM689 464L689 464zM689 464L689 464z"/><path class="leaflet-interactive" stroke="#3388ff" stroke-opacity="0" stroke-width="3" stroke-linecap="round" stroke-linejoin="round" fill="#3388ff" fill-opacity="0" fill-rule="evenodd" d="M683 466L683 465zM683 465L683 465z"/><path class="leaflet-interactive" stroke="#3388ff" stroke-opacity="0" stroke-width="3" stroke-linecap="round" stroke-linejoin="round" fill="#3388ff" fill-opacity="0" fill-rule="evenodd" d="M755 454L757 444L755 454zM744 477L750 469L744 477zM730 501L735 492L730 501zM727 526L727 517L727 526zM724 558L723 560L726 551L725 554zM699 591L704 584L699 591zM673 620L669 621L677 618L674 619zM640 599L641 600L640 592L640 599zM655 556L657 553L657 549L656 555zM653 524L649 516L652 522z"/></g></svg>