<svg xmlns="http://www.w3.org/2000/svg" pointer-events="none" class="leaflet-zoom-animated" width="1454" height="785" viewBox="-208 -124 1454 785" style="transform: translate3d(-208px, -124px, 0px);"><g><path class="leaflet-interactive" stroke="#201920" stroke-opacity="1" stroke-width="2" stroke-linecap="round" stroke-linejoin="round" fill="none" d="M276 226L276 222L275 223L273 219L277 217L276 214L279 211L280 212L283 209L285 209L285 207L288 208L290 206L291 209L297 209L302 201L307 202L310 199L311 200L311 198L317 196L320 193L327 191L327 184L330 181L329 180L332 179L332 175L329 168L329 162L325 160L325 158L338 154L346 156L347 155L344 152L344 150L350 132L357 135L366 136L370 134L372 132L370 121L374 117L376 118L379 116L381 112L380 111L382 109L388 109L390 116L395 118L397 122L403 122L404 125L407 124L407 126L410 128L412 135L414 135L415 138L415 141L413 143L414 146L412 149L413 156L414 155L417 157L418 156L424 158L434 158L445 166L450 166L449 169L451 169L452 174L458 183L464 182L483 185L499 185L506 190L507 189L512 192L522 193L523 195L527 196L530 193L547 186L557 187L568 184L576 176L580 175L583 172L579 166L580 161L583 157L596 161L600 159L605 153L612 153L618 148L617 147L622 142L626 142L627 139L631 140L633 138L638 137L640 139L647 138L646 133L636 123L631 122L627 126L618 124L615 127L612 124L612 122L614 120L621 100L629 104L636 99L642 97L643 94L641 94L641 92L646 85L648 77L651 74L653 74L654 71L653 66L651 64L648 65L648 63L656 55L657 56L673 52L677 52L681 55L682 54L684 57L687 58L693 58L693 61L695 61L696 65L699 67L698 70L700 71L699 72L702 77L701 78L703 79L703 85L706 88L707 95L709 95L708 100L711 104L718 103L718 105L724 105L724 107L726 107L730 112L734 112L732 115L735 119L733 121L737 127L748 126L753 121L755 122L762 118L769 118L766 119L765 124L767 126L761 132L762 133L759 140L760 143L753 156L750 157L743 154L741 156L742 157L736 159L739 169L739 175L737 181L732 183L733 186L730 183L730 181L727 180L726 185L724 187L723 186L720 191L712 191L715 196L713 198L706 197L704 195L705 194L703 194L704 193L701 194L696 203L689 206L683 211M316 293L313 290L313 288L316 285L318 289L320 287L320 283L315 277L315 273L318 270L312 266L310 258L305 259L298 256L298 254L295 255L293 252L294 249L291 246L289 246L289 244L281 242L283 240L285 241M542 383L540 383L541 380L539 380L541 376L539 374L534 375L530 371L528 371L526 375L521 375L518 378L516 376L514 376L511 379L508 376L506 376L505 379L500 378L500 390L496 389L496 385L488 387L488 385L486 385L485 382L481 382L481 376L483 374L478 372L478 368L476 366L478 364L472 364L468 366L467 365L469 363L467 361L469 357L468 356L476 348L475 347L477 343L477 335L474 332L474 334L472 332L472 328L468 326L468 324L466 326L467 327L465 327L466 330L463 332L456 327L452 327L449 328L449 330L446 332L441 333L435 339L431 340L423 340L423 334L419 334L418 329L413 330L404 327L400 331L398 336L396 334L397 329L395 328L393 330L388 331L384 331L379 328L377 330L375 328L375 330L371 326L368 327L367 323L364 324L359 319L359 317L355 319L350 314L348 314L348 312L347 313L346 311L344 311L343 308L338 307L336 311L322 301L319 302L316 299L316 293M551 387L546 386L542 383M554 516L553 507M562 432L565 436L566 441M570 465L568 473M582 537L590 534M612 506L617 500M636 476L639 467M640 434L640 443M648 409L643 417M663 385L657 393M668 370L670 360"/><path class="leaflet-interactive" stroke="#201920" stroke-opacity="1" stroke-width="2" stroke-linecap="butt" stroke-linejoin="round" stroke-dasharray="4,4" stroke-dashoffset="4" fill="none" d="M285 241L287 239L285 237L285 229L283 227L280 226L278 228L276 226"/><path class="leaflet-interactive" stroke="gray" stroke-opacity="1" stroke-width="1" stroke-linecap="round" stroke-linejoin="round" stroke-dasharray="8,4,4,4" fill="none" d="M596 381L596 381M601 378L599 378L598 381L603 381L603 379L601 378"/><path class="leaflet-interactive" stroke="#4190da" stroke-opacity="1" stroke-width="1" stroke-linecap="round" stroke-linejoin="round" fill="none" d="M600 380L600 378L598 379L597 376L596 381L594 383L593 382L593 384L590 383L588 385L585 384L583 386L573 388L569 391L569 393L572 396L570 398L566 398L564 392L566 388L564 386L562 388L560 388L560 386L551 387M570 390L570 390M570 390L570 392L570 390M596 381L596 381M600 380L600 380M600 380L600 380M600 380L600 380M647 341L644 342L646 342L647 345L644 346L645 349L643 351L647 351L645 353L642 352L642 354L640 354L641 355L640 356L640 354L638 358L637 357L638 358L636 361L633 360L633 362L627 369L623 369L619 375L613 375L611 377L609 375L606 378L604 376L604 378L603 379L603 377L601 379L603 379L600 380M647 341L647 341M662 319L660 323L661 326L658 329L657 328L656 331L655 330L647 343L646 342L648 340L647 341M660 245L658 247L654 247L655 250L654 249L653 252L650 253L650 251L650 253L641 264L651 272L655 282L655 286L660 290L659 291L663 293L663 295L658 293L656 295L658 297M658 297L664 302L663 303L665 305L661 303L656 306L659 307L663 312L665 312L662 314L664 315L663 319M660 245L660 245M660 245L660 245M666 219L663 223L659 225L656 224L661 221L661 219L660 220L657 217L659 217L659 215L666 208L665 205L664 206L662 204L657 203L652 208L652 210L645 213L642 216L642 218L636 222L636 224L633 223L633 221L631 221L629 225L629 229L631 229L631 231L638 232L641 235L642 234L642 236L639 237L639 239L642 242L646 242L646 240L650 237L649 236L653 235L659 237L659 239L665 238L669 240L666 245L660 245M660 245L660 245M662 319L662 319M662 319L662 319M662 319L662 319M663 319L662 319M663 319L663 319M665 311L665 311M665 311L665 311M665 311L665 311M666 311L665 311M665 311L663 309L665 309L666 311M666 311L666 311M666 309L667 308L666 309M666 309L666 309M666 219L666 219M683 211L681 215L675 215L666 219M667 304L667 304M667 304L667 304M669 303L669 303M558 386L558 386M560 391L560 391M563 401L563 401M563 505L564 503L567 504L566 503L563 505M564 416L556 412L556 406L561 401L573 398L576 402L573 405L571 411L565 414L564 416M567 501L568 500L567 501M570 394L570 394M571 390L571 390M571 501L571 501M571 499L572 498L571 499M572 391L572 389L572 391M572 397L572 397M572 499L572 499M572 392L572 392M577 435L577 435M579 425L580 424L579 425M579 495L579 495M579 430L579 430M579 489L579 489M580 503L580 503M580 501L580 501M580 430L580 430M580 429L580 429M580 500L581 501L580 500M580 432L580 432M580 494L581 495L580 494M580 429L580 429M581 502L581 502M581 429L581 429M581 432L582 431L581 432M581 430L582 429L581 430M581 433L581 433M583 499L583 499M583 431L583 431M583 533L583 533M585 493L585 493M585 493L585 493M585 533L585 533M585 427L585 427M585 436L585 436M585 425L586 426L585 425M585 492L586 493L585 492M585 532L585 532M586 492L586 492M586 519L586 519M586 426L586 426M586 427L586 427M587 431L586 432L587 431M587 386L587 386M587 518L587 518M587 434L588 433L587 434M587 430L588 429L587 430M587 487L587 487M587 519L588 518L587 519M587 517L588 518L587 517M588 493L588 493M588 516L588 516M588 523L588 523M588 386L588 386M588 519L588 519M588 521L588 521M588 430L589 431L588 430M588 523L588 523M589 385L588 386L589 385M589 431L589 431M589 428L589 428M590 386L589 385L590 386M590 492L590 492M590 386L590 386M590 427L590 427M590 501L590 501M590 487L590 487M590 487L590 487M591 524L591 524M591 496L591 496M591 404L591 404M591 486L591 486M591 384L591 384M592 383L592 383M592 384L592 384M593 383L593 383M593 513L593 513M593 499L593 499M593 499L594 498L593 499M596 381L596 381M596 481L596 481M596 508L596 508M596 492L597 491L596 492M597 490L597 490M597 383L597 383M597 437L597 437M597 383L597 383M597 383L597 383M597 383L597 383M597 503L598 502L597 503M598 505L598 505M598 379L598 379M598 382L598 382M598 407L598 407M598 381L600 381L598 381M598 483L598 483M598 438L598 438M598 436L599 437L598 436M598 500L599 499L598 500M598 503L603 500L604 501L602 503L598 503M599 492L598 493L599 492M599 435L599 435M599 493L599 493M599 492L600 493L599 492M599 439L599 439M600 483L600 483M600 476L600 476M600 499L600 499M600 434L600 434M600 381L600 381M601 383L601 383M601 488L601 488M601 380L601 380M601 383L601 383M601 493L601 493M601 433L601 433M601 382L601 382M601 438L601 438M601 481L601 481M601 485L601 485M601 381L601 381M601 437L602 438L601 437M602 486L602 486M602 472L602 472M602 378L602 378M602 475L602 475M602 380L602 380M602 482L602 482M602 477L602 477M602 471L602 471M603 433L603 433M603 484L603 484M603 437L603 437M603 485L603 485M603 476L603 476M603 477L603 477M603 484L603 484M603 499L604 498L603 499M604 484L604 484M604 484L604 484M604 472L604 472M604 484L604 484M604 493L605 492L604 493M604 437L604 437M604 484L605 483L604 484M604 472L605 471L604 472M604 379L604 379M605 503L605 503M605 498L605 498M605 480L605 480M605 471L605 471M605 475L606 474L605 475M605 432L605 432M605 485L605 485M606 498L606 498M606 474L606 474M606 435L606 435M606 477L606 477M606 506L606 506M606 500L606 500M607 476L607 476M607 433L607 433M607 504L607 504M607 474L607 474M609 496L610 497L609 496M609 495L610 496L609 495M610 482L610 482M610 451L610 451M611 488L611 488M611 484L611 484M611 496L612 495L611 496M613 479L613 479M613 479L613 479M613 479L613 479M613 480L614 479L613 480M614 479L614 479M614 486L615 485L614 486M614 476L614 476M615 391L615 391M615 390L616 391L615 390M615 489L615 489M616 483L616 483M617 487L617 487M618 492L618 492M619 485L619 485M619 490L619 490M619 485L619 485M619 480L621 480L619 480M620 485L620 485M621 479L621 479M621 431L621 431M621 471L622 472L621 471M621 394L621 394M621 491L621 491M622 393L622 395L622 393M622 479L622 479M625 370L623 370L625 370M625 478L625 478M625 477L625 477M626 481L626 481M626 478L627 477L626 478M626 474L626 474M626 483L626 483M627 475L627 475M629 478L629 478M629 475L629 475M629 441L630 440L629 441M630 477L630 477M632 361L632 361M633 361L632 360L633 361M633 362L634 361L633 362M635 361L634 362L635 361M637 222L637 222M638 221L638 221M638 221L639 222L638 221M643 372L643 372M643 355L644 354L643 355M644 371L644 371M644 368L644 368M644 368L644 368M644 351L644 351M645 346L645 346M645 369L644 370L645 369M645 350L645 350M645 351L645 351M645 342L646 341L645 342M645 353L645 353M645 353L645 353M646 342L646 342M647 351L647 351M647 346L647 346M647 348L647 348M648 370L648 370M648 345L647 346L648 345M648 343L648 343M649 343L649 343M649 342L649 342M649 340L649 340M649 256L649 256M650 339L650 339M650 380L650 380M650 339L650 339M651 236L651 236M652 344L652 344M653 234L652 233L653 234M653 383L649 376L648 369L654 359L659 354L661 354L663 356L663 361L659 373L655 378L655 384L653 383M653 233L653 233M653 234L653 234M654 232L654 232M654 207L654 207M654 230L654 230M655 229L655 229M655 230L655 230M656 249L656 249M656 330L656 330M656 334L656 334M656 330L657 329L656 330M657 330L658 329L657 330M659 294L664 297L663 298L657 294L659 294M659 287L659 287M659 377L659 377M660 382L660 382M661 383L661 383M661 297L661 297M661 319L661 319M662 323L662 323M662 299L660 298L662 299M662 298L664 299L662 298M662 310L662 310M662 322L662 322M662 323L663 322L662 323M663 325L663 325M663 310L662 311L663 310M663 299L663 299M663 325L663 325M663 352L663 352M663 358L663 358M663 310L663 310M663 300L664 299L663 300M663 308L663 308M664 319L664 319M664 313L664 313M664 311L664 311M664 309L664 309M664 305L664 305M664 311L664 311M664 311L664 311M665 311L665 311M665 311L665 311M665 309L665 309M665 308L666 309L665 308M665 309L665 309M665 316L665 316M665 314L664 313L665 314M665 314L665 314M665 311L666 312L665 311M666 312L666 312M666 312L666 312M666 314L665 313L666 314M666 312L667 311L667 313L666 312M667 221L667 221M667 311L667 311M667 307L667 307M668 307L668 307M668 221L668 221M668 220L668 220M668 305L668 305M669 221L670 220L669 221M670 310L670 310M670 223L669 222L670 223M670 304L670 304M670 304L670 304M672 217L671 218L672 217M672 218L672 218M673 223L673 223M674 350L676 350L674 350M676 349L676 349M677 348L678 349L677 348M677 351L677 351M677 350L677 350M677 351L677 351M677 215L677 215M684 348L683 349L684 348"/><path class="leaflet-interactive" stroke="#747569" stroke-opacity="0.6" stroke-width="1" stroke-linecap="round" stroke-linejoin="round" fill="none" d="M404 252L395 249L385 249L377 251L374 256L366 256L359 260L350 259L349 256L345 256L345 258L343 258L341 261L329 259L329 261L327 263L326 262L325 267L323 269L322 268L318 270M468 287L466 287L466 289L463 292L461 292L460 295L457 293L456 296L454 294L451 295L449 293L450 290L449 291L447 289L449 289L447 289L444 286L438 288L433 287L431 285L424 285L419 282L413 282L409 280L403 272L405 272L405 264L403 264L402 261L405 255L401 253L404 252M426 223L419 224L417 226L411 226L410 228L407 229L408 231L410 231L410 236L412 236L417 243L415 243L412 246L412 248L415 249L413 253L407 251L405 253L404 252M501 277L500 278L499 276L497 276L493 272L493 270L494 269L503 272L503 270L505 270L502 267L502 265L506 261L505 260L509 258L508 255L510 255L511 253L509 247L506 244L508 242L502 236L501 237L497 235L488 228L488 230L486 230L478 222L473 223L471 225L466 221L462 221L463 226L460 229L460 231L458 230L456 232L452 229L443 230L441 225L437 226L437 224L432 224L431 221L426 223M458 183L454 186L456 189L454 193L449 195L446 194L438 201L436 205L430 206L428 216L425 220L426 223M521 239L514 235L514 229L518 227L521 222L519 220L520 219L517 218L511 222L507 220L501 222L503 224L501 226L494 223L493 219L483 214L489 206L488 203L480 203L480 205L479 204L476 206L476 204L473 206L473 203L470 201L468 197L469 195L464 182M480 318L478 304L475 299L478 298L474 294L472 288L468 287M501 277L500 282L496 280L497 285L491 287L489 285L488 286L486 282L485 285L478 282L474 272L470 271L468 272L468 274L466 274L466 276L469 279L466 282L467 283L465 283L466 286L468 287M472 328L472 326L476 328L476 320L478 322L478 318L480 318M529 332L528 329L524 331L522 329L522 323L518 323L518 326L514 328L515 331L510 336L511 343L508 346L508 344L501 347L501 345L499 345L499 341L493 333L494 332L492 330L490 332L487 329L487 324L484 322L482 324L482 328L480 326L480 318M531 283L530 286L524 286L521 283L522 280L520 276L513 275L510 270L504 274L507 277L502 282L501 277M548 235L545 232L539 230L543 223L541 219L537 220L537 222L536 221L534 225L534 233L532 236L521 239M521 239L523 239L530 246L529 247L531 251L531 256L533 256L533 258L535 258L538 261L538 257L543 254L543 252L539 250L539 244L541 242L545 242M529 332L529 334L525 336L521 336L518 334L516 338L517 343L523 341L524 342L521 351L524 354L526 354L523 359M523 359L523 361L527 361L529 365L534 364L536 366L535 370L534 369L531 372M563 347L562 350L559 349L558 350L560 350L560 352L557 351L556 354L552 352L553 353L549 355L546 354L545 351L535 359L528 356L524 360L523 359M538 325L536 323L532 325L532 327L533 326L537 328L538 330L536 332L529 332M545 242L545 244L552 248L553 247L556 250L556 259L554 261L549 260L549 264L539 262L540 265L538 267L541 270L539 270L540 277L534 277L533 280L535 281L532 284L531 283M555 290L549 290L548 288L546 288L547 287L545 288L543 286L544 285L537 286L535 284L532 285L531 283M561 325L560 328L558 328L554 320L550 320L548 318L546 318L546 322L543 321L541 325L539 325L539 323L538 325M538 325L537 321L533 321L533 319L529 315L533 311L531 309L535 307L537 309L540 308L540 310L543 311L546 308L546 304L551 303L551 299L555 296L553 292L555 290M545 242L545 238L548 235M576 219L576 217L573 220L570 220L568 218L569 219L567 221L566 220L567 221L560 228L560 233L558 233L556 237L548 235M555 290L564 295M564 295L569 300L569 302L563 306L554 306L554 308L556 309L554 313L556 313L559 316L558 317L560 316L561 319M561 319L561 325M599 320L597 320L596 313L592 316L591 313L586 316L582 312L578 312L576 310L572 310L572 314L565 313L565 315L564 314L561 319M563 347L563 345L561 345L563 337L558 338L558 336L560 336L559 335L563 333L561 325M583 359L582 358L579 360L579 356L575 356L579 349L577 349L576 344L572 344L569 348L567 346L565 348L563 347M575 280L573 282L571 280L563 280L565 284L566 283L569 286L565 286L563 288L564 295M565 387L565 388M565 387L569 383L570 384L570 382L573 381L573 379L576 376L578 376L578 370L584 362L583 359M566 399L567 399M568 399L570 398M570 267L569 264L572 257L570 243L574 237L571 234L571 232L574 229L575 224L577 222L576 219M570 267L575 280M570 267L580 265L583 262L584 263L584 261L590 261L596 257L597 250M571 398L572 397M610 298L608 296L605 297L604 294L599 295L597 291L598 290L596 288L594 290L592 288L585 289L581 287L575 280M575 281L575 281M600 205L600 207L590 209L590 211L587 209L582 217L579 216L579 218L576 219M583 359L585 355L589 355L589 357L591 357L592 354L590 354L592 352L596 354L599 352M611 252L608 251L607 253L597 250M597 250L595 246L597 246L597 244L598 245L597 242L600 239L600 235L598 231L596 231L596 227L598 225L597 223L602 222L604 218L603 215L599 213L599 211L600 212L600 210L603 209L600 205M617 313L615 314L611 312L611 314L609 314L606 317L602 317L599 320M599 352L599 348L601 346L599 346L600 343L598 341L598 336L596 334L596 332L601 327L601 323L599 320M599 352L599 354L605 354L605 356L603 356L601 360L603 361L610 358L614 360L613 359L615 357M641 199L634 198L634 190L633 191L631 189L632 188L630 184L624 186L620 192L619 191L616 194L614 192L610 194L610 196L606 196L607 192L603 190L601 196L598 197L600 205M617 267L617 269L620 270L621 273L618 276L614 272L612 274L613 277L611 277L610 280L606 282L609 285L609 287L615 287L615 293L612 294L610 298M617 313L614 307L614 303L616 301L610 298M631 230L626 235L622 235L619 238L618 237L617 240L615 240L615 242L610 247L611 252M617 267L611 267L611 265L609 265L609 263L608 264L606 262L614 254L616 254L616 252L610 256L611 252M615 357L614 354L621 343L620 340L624 338L625 335L623 333L626 332L626 330L629 331L635 327M625 369L622 360L620 360L618 358L619 357L615 357M633 317L633 315L629 315L626 312L624 312L625 313L622 315L621 314L623 312L621 310L617 313M618 267L617 267M642 263L638 263L638 265L635 266L634 269L631 266L629 268L626 267L626 269L622 263L619 264L618 267M645 300L644 301L642 299L638 299L637 298L639 296L637 296L637 294L636 295L634 293L636 291L635 290L637 290L636 287L640 287L641 284L638 283L638 285L634 285L634 283L631 280L633 276L629 276L630 275L627 272L618 267M627 210L625 208L628 205L624 205L620 201L618 203L619 204L613 207L615 209L611 213L611 215L614 218L618 218L620 216L622 217M629 227L626 228L621 225L623 221L622 217M623 216L622 217M623 216L625 216L625 212M625 212L622 213L623 216M625 369L626 370M627 210L625 212M626 371L627 371M627 210L630 213L628 213L628 215L632 221M633 317L639 311L638 310L643 307L641 305L644 304L645 300M633 317L632 320L635 323L635 327M651 337L650 334L646 336L644 332L641 335L638 334L638 327L635 327M641 199L643 197L643 187L648 192L648 194L654 188L655 189L658 186L662 186L664 183L672 183L675 180L677 180L677 176M646 213L646 210L643 207L641 207L641 205L638 204L641 199M655 301L652 304L645 300M653 338L654 338M654 229L656 229M663 296L658 293L657 299L655 301M658 305L655 301M659 305L660 305M675 135L675 137L674 136L672 138L667 131L668 128L682 116L684 122L686 110L690 108L689 100L696 85L690 77L687 79L687 81L672 82L669 73L670 70L666 66L663 69L661 69L661 67L658 65L662 59L660 55M660 305L661 304M662 304L663 304M664 303L665 303M667 303L668 303M669 302L670 302M739 175L734 175L730 169L728 171L728 169L725 171L724 170L722 174L720 174L716 168L715 163L712 166L713 167L710 168L707 162L704 163L705 158L703 156L695 156L693 152L684 153L680 149L680 143L673 144M673 144L672 140L677 138L677 136L676 137L675 135M673 144L670 146L670 150L667 147L664 148L662 146L661 149L664 151L666 155L664 158L666 166L671 165L673 163L676 172L676 174L674 174L677 176M675 135L675 135M675 135L675 135M675 135L675 135M677 176L678 175L683 180L683 182L686 179L687 180L689 188L691 190L692 189L690 191L690 195L692 195L691 196L694 199L692 203L694 203M534 259L535 258L534 259M563 341L564 340L563 341M591 313L591 313"/></g></svg>